<svg data-v-272a129c="" width="28" height="29" viewBox="0 0 1259 1328" fill="none" xmlns="http://www.w3.org/2000/svg" class="ng-icon-svg"><path data-v-272a129c="" d="M948.355 1130.77C942.145 1137.69 936.193 1144.01 930.608 1149.72C936.641 1143.36 942.556 1137.04 948.355 1130.77C1040.66 1027.91 1189.99 794.063 1040 518C1002.21 451.645 842.197 322.245 679.128 368.304C610.046 374.21 468.82 444.094 456.563 676.383C396.54 569.106 364.511 322.886 638 216C773.968 162.861 1095.68 240.056 1186 469.998C1236.89 599.555 1248.35 806.182 948.355 1130.77Z" fill="#2E83FB"></path> <path data-v-272a129c="" d="M143.9 1017.84C137.864 1013.71 132.253 1009.69 127.088 1005.84C132.73 1009.91 138.334 1013.91 143.9 1017.84C256.583 1094.97 517.147 1211.93 774 1024C834.713 977.686 935.341 807.691 867.913 652.235C852.833 584.562 764.71 453.936 532.866 472.816C631.164 399.001 870.9 334.372 1013.36 591.132C1084.18 718.783 1050.65 1047.93 834.835 1168.15C712.75 1236.16 508.368 1275.16 143.9 1017.84Z" fill="#2E83FB"></path> <path data-v-272a129c="" d="M300.056 131.307C310.071 120.08 319.585 110.084 328.201 101.387C318.521 111.471 309.141 121.444 300.056 131.307C206.432 236.268 69.0234 448.956 212 716C249.382 782.586 411.537 929.391 574.885 884.333C644.002 878.85 785.654 809.833 799.335 577.624C858.699 685.267 889.217 931.678 615.078 1036.89C478.788 1089.19 157.551 1010.02 68.6463 779.533C19.1305 651.158 8.59471 447.711 300.056 131.307Z" fill="#2E83FB"></path> <path data-v-272a129c="" d="M1151.28 304.267C1160.18 313.06 1168.16 321.406 1175.19 329.061C1167.16 320.584 1159.19 312.321 1151.28 304.267C1051.76 205.898 837.877 51.6189 560 184C491.732 218.214 344.191 373.421 381.528 538.706C383.759 608.003 446.048 752.74 677.358 777.31C567.046 831.554 319.473 850.467 227.256 571.69C181.41 433.094 275.574 115.929 509.986 37.9464C641.213 -5.7086 846.35 -6.46511 1151.28 304.267Z" fill="#2E83FB"></path></svg>